<svg height="480pt" viewBox="0 -4 480 480" width="480pt" xmlns="http://www.w3.org/2000/svg"><path d="m8 216v-96h128c8.835938 0 16 7.164062 16 16v64c0 8.835938-7.164062 16-16 16zm96-72c-12.867188.140625-23.332031 10.402344-23.730469 23.261719-.394531 12.863281 9.425781 23.746093 22.257813 24.675781.578125.054688 1.367187.0625 1.472656.0625 13.253906 0 24-10.746094 24-24 .015625-.316406.015625-.636719 0-.953125-.566406-12.855469-11.132812-23-24-23.046875zm0 0" fill="#96c8ef"/><path d="m360 240c-11.707031-.03125-23.339844 1.828125-34.457031 5.503906-42.742188 13.675782-73.105469 51.667969-77.023438 96.375-.351562 3.363282-.523437 6.742188-.519531 10.121094.078125 61.824219 50.175781 111.921875 112 112 61.855469 0 112-50.144531 112-112s-50.144531-112-112-112zm0 0" fill="#78b9eb"/><g fill="#1a6fb0"><path d="m480 24c-.039062-13.238281-10.761719-23.9609375-24-24h-432c-13.238281.0390625-23.9609375 10.761719-24 24v288c.0390625 13.238281 10.761719 23.960938 24 24h217.199219c-.761719 5.300781-1.164063 10.644531-1.199219 16 0 66.273438 53.726562 120 120 120s120-53.726562 120-120c-.046875-9.351562-1.175781-18.667969-3.359375-27.761719 2.195313-3.703125 3.355469-7.929687 3.359375-12.238281zm-464 104h120c4.417969 0 8 3.582031 8 8v64c0 4.417969-3.582031 8-8 8h-120zm344 328c-57.414062-.054688-103.945312-46.585938-104-104-.023438-10.871094 1.703125-21.675781 5.121094-32 13.828125-42.871094 53.707031-71.945312 98.75-72 45.046875-.054688 84.996094 28.921875 98.929687 71.761719 3.480469 10.390625 5.234375 21.28125 5.199219 32.238281-.054688 57.414062-46.585938 103.945312-104 104zm104-163.601562c-23.996094-42.039063-70.941406-65.503907-118.972656-59.464844-48.03125 6.039062-87.703125 40.394531-100.546875 87.066406h-220.480469c-4.417969 0-8-3.582031-8-8v-88h120c13.238281-.039062 23.960938-10.761719 24-24v-64c-.039062-13.238281-10.761719-23.960938-24-24h-120v-88c0-4.417969 3.582031-8 8-8h432c4.417969 0 8 3.582031 8 8zm0 0"/><path d="m135.921875 166.078125c-1.019531-17.148437-15.398437-30.433594-32.578125-30.09375-17.175781.335937-31.023438 14.183594-31.359375 31.359375-.339844 17.179688 12.945313 31.558594 30.09375 32.578125.640625.066406 1.28125.089844 1.921875.078125 17.671875 0 32-14.328125 32-32 .011719-.640625-.011719-1.28125-.078125-1.921875zm-31.921875 17.921875c-2.753906.023438-5.460938-.695312-7.839844-2.078125-5.933594-3.300781-9.136718-9.988281-7.996094-16.679687 1.144532-6.691407 6.386719-11.933594 13.078126-13.078126 6.691406-1.140624 13.378906 2.0625 16.679687 7.996094 1.382813 2.378906 2.101563 5.085938 2.078125 7.839844-.027344 8.824219-7.175781 15.972656-16 16zm0 0"/><path d="m440 344v16h-72v64h-16v-64h-72v-16h72v-72h16v72zm0 0"/></g></svg>