<svg height="362pt" viewBox="0 0 362 362.00081" width="362pt" xmlns="http://www.w3.org/2000/svg"><path d="m177 177.160156c-16.53125 0-29.933594-13.402344-29.933594-29.933594s13.402344-29.933593 29.933594-29.933593c16.535156 0 29.933594 13.402343 29.933594 29.933593 0 3.867188 3.136718 7 7 7 3.867187 0 7-3.132812 7-7-.027344-21.550781-15.660156-39.910156-36.933594-43.371093v-13.855469c0-3.867188-3.132812-7-7-7s-7 3.132812-7 7v13.855469c-22.601562 3.660156-38.605469 24.058593-36.773438 46.882812 1.828126 22.820313 20.878907 40.410157 43.773438 40.417969 16.464844 0 29.835938 13.292969 29.933594 29.757812.09375 16.460938-13.125 29.910157-29.585938 30.101563-.117187-.007813-.230468-.019531-.347656-.019531s-.230469.011718-.347656.019531c-16.386719-.207031-29.566406-13.539063-29.585938-29.925781 0-3.867188-3.132812-7-7-7-3.867187 0-7 3.132812-7 7 .027344 21.550781 15.664063 39.910156 36.933594 43.371094v15.539062c0 3.867188 3.132812 7 7 7s7-3.132812 7-7v-15.539062c22.605469-3.648438 38.617188-24.054688 36.785156-46.878907-1.828125-22.824219-20.886718-40.417969-43.785156-40.421875zm0 0" fill="#1ae5be"/><path d="m177 22c18.265625-.023438 36.40625 3.03125 53.65625 9.039062 2.363281.839844 5 .347657 6.902344-1.289062 1.902344-1.632812 2.785156-4.164062 2.3125-6.628906s-2.230469-4.488282-4.605469-5.300782c-18.730469-6.523437-38.429687-9.84375-58.265625-9.820312-97.597656 0-177 79.398438-177 177-.0273438 20.683594 3.582031 41.210938 10.664062 60.644531 1.324219 3.632813 5.34375 5.503907 8.976563 4.175781 3.632813-1.324218 5.5-5.34375 4.175781-8.976562-6.519531-17.894531-9.839844-36.796875-9.816406-55.84375 0-89.878906 73.121094-163 163-163zm0 0" fill="#0635c9"/><path d="m331.21875 113.050781c-3.566406 1.492188-5.246094 5.59375-3.757812 9.160157 8.320312 19.886718 12.582031 41.234374 12.539062 62.789062 0 89.878906-73.121094 163-163 163-35.460938.109375-69.972656-11.453125-98.210938-32.898438-3.085937-2.332031-7.472656-1.722656-9.804687 1.359376-2.332031 3.085937-1.722656 7.476562 1.359375 9.808593 30.667969 23.292969 68.148438 35.847657 106.65625 35.730469 97.601562 0 177-79.398438 177-177 .046875-23.410156-4.585938-46.59375-13.621094-68.191406-1.492187-3.566406-5.59375-5.25-9.160156-3.757813zm0 0" fill="#0635c9"/><g fill="#1ae5be"><path d="m355 43.953125h-36.953125v-36.953125c0-3.867188-3.132813-7-7-7s-7 3.132812-7 7v36.953125h-39.046875c-3.867188 0-7 3.132813-7 7s3.132812 7 7 7h39.046875v39.046875c0 3.867188 3.132813 7 7 7s7-3.132812 7-7v-39.046875h36.953125c3.867188 0 7-3.132813 7-7s-3.132812-7-7-7zm0 0"/><path d="m55.449219 353.644531c-3.402344 0-6.316407-2.449219-6.898438-5.800781l-9.464843-54.589844c-.324219-1.882812.128906-3.8125 1.261718-5.351562 1.132813-1.535156 2.84375-2.542969 4.738282-2.785156l54.941406-7.136719c2.78125-.359375 5.507812.972656 6.933594 3.390625 1.421874 2.414062 1.265624 5.445312-.394532 7.703125l-45.480468 61.726562c-1.320313 1.789063-3.414063 2.84375-5.636719 2.84375zm-1.320313-55.589843 5.414063 31.230468 26.019531-35.3125zm0 0"/></g></svg>