<svg height="512" viewBox="0 0 58 60" width="512" xmlns="http://www.w3.org/2000/svg"><g id="Page-1" fill="none" fill-rule="evenodd"><g id="054---Cash" fill-rule="nonzero"><path id="Shape" d="m29 49v4.5c0 3.04-6.27 5.5-14 5.5s-14-2.46-14-5.5v-7c0 1.33 1.2 2.55 3.2 3.5 3.41997173 1.4164594 7.0995966 2.0978714 10.8 2 3.7004034.0978714 7.3800283-.5835406 10.8-2 .6048336-.2818711 1.1780439-.6271381 1.71-1.03.49.02.99.03 1.49.03z" fill="#a4c2f7"/><path id="Shape" d="m57 46.5v7c0 3.04-6.27 5.5-14 5.5s-14-2.46-14-5.5v-4.5c.5 0 1-.01 1.49-.03.5319561.4028619 1.1051664.7481289 1.71 1.03 3.4199717 1.4164594 7.0995966 2.0978714 10.8 2 3.7004034.0978714 7.3800283-.5835406 10.8-2 2-.95 3.2-2.17 3.2-3.5z" fill="#a4c2f7"/><path id="Shape" d="m57 46.5c0 1.33-1.2 2.55-3.2 3.5-3.4199717 1.4164594-7.0995966 2.0978714-10.8 2-3.7004034.0978714-7.3800283-.5835406-10.8-2-.6048336-.2818711-1.1780439-.6271381-1.71-1.03 7.03-.29 12.51-2.63 12.51-5.47v-2.5c7.73 0 14 2.46 14 5.5z" fill="#e8edfc"/><path id="Shape" d="m43 41v.13c6.288.539 11 2.735 11 5.37 0 1.33-1.2 2.55-3.2 3.5-2.9455831 1.2445681-6.1027368 1.9119836-9.3 1.966.493.021.993.034 1.5.034 3.7004034.0978714 7.3800283-.5835406 10.8-2 2-.95 3.2-2.17 3.2-3.5 0-3.04-6.27-5.5-14-5.5z" fill="#cad9fc"/><path id="Shape" d="m27.51 48.97c-.5319561.4028619-1.1051664.7481289-1.71 1.03-3.4199717 1.4164594-7.0995966 2.0978714-10.8 2-3.7004034.0978714-7.38002827-.5835406-10.8-2-2-.95-3.2-2.17-3.2-3.5 0-3.04 6.27-5.5 14-5.5v2.5c0 2.84 5.48 5.18 12.51 5.47z" fill="#e8edfc"/><path id="Shape" d="m15 43.5v-2.5c-1.031 0-2.033.047-3 .13v2.37c0 2.84 5.48 5.18 12.51 5.47-.5319561.4028619-1.1051664.7481289-1.71 1.03-2.9455831 1.2445681-6.1027368 1.9119836-9.3 1.966.493.021.993.034 1.5.034 3.7004034.0978714 7.3800283-.5835406 10.8-2 .6048336-.2818711 1.1780439-.6271381 1.71-1.03-7.03-.29-12.51-2.63-12.51-5.47z" fill="#cad9fc"/><path id="Shape" d="m39 13h-3v11c0 1.1045695-.8954305 2-2 2h-10c-1.1045695 0-2-.8954305-2-2v-11h-3c-.4043959-.0000863-.7689341-.2437275-.923678-.6173454-.1547439-.373618-.0692299-.8036603.216678-1.0896546l10-10c.3904999-.39038194 1.0235001-.39038194 1.414 0l10 10c.2859079.2859943.3714219.7160366.216678 1.0896546-.1547439.3736179-.5192821.6172591-.923678.6173454z" fill="#e8edfc"/><path id="Shape" d="m33 24c0 1.1045695-.8954305 2-2 2h3c1.1045695 0 2-.8954305 2-2v-11h-3z" fill="#cad9fc"/><path id="Shape" d="m39.707 11.293-10-10c-.3904999-.39038194-1.0235001-.39038194-1.414 0l-.793.793 9.207 9.207c.2859079.2859943.3714219.7160366.216678 1.0896546-.1547439.3736179-.5192821.6172591-.923678.6173454h3c.4043959-.0000863.7689341-.2437275.923678-.6173454.1547439-.373618.0692299-.8036603-.216678-1.0896546z" fill="#cad9fc"/><path id="Shape" d="m43 36.5v7c0 2.84-5.48 5.18-12.51 5.47l-1.49.03c-.5 0-1-.01-1.49-.03-7.03-.29-12.51-2.63-12.51-5.47v-7c0 3.04 6.27 5.5 14 5.5s14-2.46 14-5.5z" fill="#a4c2f7"/><ellipse id="Oval" cx="29" cy="36.5" fill="#e8edfc" rx="14" ry="5.5"/><path id="Shape" d="m29 31c-.507 0-1.007.012-1.5.032 7.026.3 12.5 2.63 12.5 5.468s-5.474 5.173-12.5 5.468c.493.02.993.032 1.5.032 7.732 0 14-2.462 14-5.5s-6.268-5.5-14-5.5z" fill="#cad9fc"/><path id="Shape" d="m24 26h3c-1.1045695 0-2-.8954305-2-2v-11h-3v11c0 1.1045695.8954305 2 2 2z" fill="#fff"/><path id="Shape" d="m15 36.5v4.5c-1.524 0-3.1.13-3 .13-6.288.539-11 2.735-11 5.37v7c0 3.04 6.27 5.5 14 5.5.507 0 1.007-.012 1.5-.033-7.025-.294-12.5-2.626-12.5-5.467v-7c0-2.635 4.712-4.831 11-5.37-.1 0 1.476-.13 3-.13v-1.106c-1.6-.8-2.653-1.767-2.928-2.832.275 1.064 1.328 2.038 2.928 2.832v-3.394c0-2.838 5.474-5.173 12.5-5.468-.493-.02-.993-.032-1.5-.032-.707 0-1.6.032-1.5.032-7.026.295-12.5 2.63-12.5 5.468z" fill="#fff"/><path id="Shape" d="m19 13h3c-.4043959-.0000863-.7689341-.2437275-.923678-.6173454-.1547439-.373618-.0692299-.8036603.216678-1.0896546l9.207-9.207-.793-.793c-.3904999-.39038194-1.0235001-.39038194-1.414 0l-10 10c-.2859079.2859943-.3714219.7160366-.216678 1.0896546.1547439.3736179.5192821.6172591.923678.6173454z" fill="#fff"/><path id="Rectangle-path" d="m17.121 7.465h8v2h-8z" fill="#fff" transform="matrix(.707 -.707 .707 .707 .201 17.414)"/><g fill="#428dff"><path id="Shape" d="m21.828 9.172c.2860606-.28597424.3716717-.71611576.2169084-1.08982722-.1547633-.37371147-.5194187-.61738633-.9239084-.61738633s-.7691451.24367486-.9239084.61738633c-.1547633.37371146-.0691522.80385298.2169084 1.08982722.3904999.39038194 1.0235001.39038194 1.414 0z"/><path id="Shape" d="m19 10.586c-.3904999-.3903819-1.0235001-.3903819-1.414 0-.5718158.5719885-.7428438 1.4320732-.433356 2.1793091.3094879.7472359 1.0385642 1.2345182 1.847356 1.2346909h2v10c0 1.6568542 1.3431458 3 3 3h10c1.6568542 0 3-1.3431458 3-3v-10h2c.8087918-.0001727 1.5378681-.487455 1.847356-1.2346909.3094878-.7472359.1384598-1.6073206-.433356-2.1793091l-10-10c-.7809997-.78076388-2.0470003-.78076388-2.828 0l-4.343 4.343c-.3789722.39237889-.3735524 1.01608478.0121814 1.40181858.3857338.38573379 1.0094397.39115363 1.4018186.01218142l4.343-4.343 10 10h-3c-.5522847 0-1 .4477153-1 1v11c0 .5522847-.4477153 1-1 1h-10c-.5522847 0-1-.4477153-1-1v-11c0-.5522847-.4477153-1-1-1h-3c.3903819-.3904999.3903819-1.0235001 0-1.414z"/><path id="Shape" d="m16 29v-13c0-.5522847-.4477153-1-1-1s-1 .4477153-1 1v13c0 .5522847.4477153 1 1 1s1-.4477153 1-1z"/><path id="Shape" d="m10 35v-13c0-.5522847-.44771525-1-1-1s-1 .4477153-1 1v13c0 .5522847.44771525 1 1 1s1-.4477153 1-1z"/><path id="Shape" d="m44 29v-13c0-.5522847-.4477153-1-1-1s-1 .4477153-1 1v13c0 .5522847.4477153 1 1 1s1-.4477153 1-1z"/><path id="Shape" d="m50 35v-13c0-.5522847-.4477153-1-1-1s-1 .4477153-1 1v13c0 .5522847.4477153 1 1 1s1-.4477153 1-1z"/><path id="Shape" d="m0 46.5v7c0 4.222 7.729 6.5 15 6.5 5.714 0 11.694-1.413 14-4.064 2.306 2.651 8.286 4.064 14 4.064 7.271 0 15-2.278 15-6.5v-7c0-4.029-7.037-6.282-14-6.481v-3.519c0-4.222-7.729-6.5-15-6.5-1.9572284-.0052476-3.9113294.1566741-5.841.484-.5442766.0944407-.9089406.6122234-.8145 1.1565.0944407.5442766.6122234.9089407 1.1565.8145 1.8166717-.3081971 3.656379-.4604188 5.499-.455 7.44 0 13 2.376 13 4.5 0 .856-.958 1.8-2.629 2.6-3.2866201 1.349823-6.8193131 1.9970235-10.371 1.9-3.5516869.0970235-7.0843799-.550177-10.371-1.9-1.671-.8-2.629-1.744-2.629-2.6 0-.9 1.089-1.921 2.913-2.725.3338613-.1394811.5663357-.44843.6078911-.8078621.0415555-.3594322-.1142907-.7132764-.4075179-.9252578s-.6780922-.2490311-1.0063732-.0968801c-2.649 1.166-4.107 2.784-4.107 4.555v3.519c-6.963.199-14 2.452-14 6.481zm15 11.5c-7.44 0-13-2.376-13-4.5v-3.645c.55436243.4059827 1.1475948.7560266 1.771 1.045 3.55474104 1.4782869 7.3802687 2.1937209 11.229 2.1 3.8511097.0950927 7.6792038-.6203753 11.236-2.1.5549662-.2621091 1.0868493-.5705344 1.59-.922h.174v3.522c0 2.124-5.56 4.5-13 4.5zm28 0c-7.44 0-13-2.376-13-4.5v-3.519h.174c.5064665.3529191 1.0416812.6626746 1.6.926 3.5543288 1.4754774 7.3787719 2.188515 11.226 2.093 3.8487313.0937209 7.674259-.6217131 11.229-2.1.6234052-.2889734 1.2166376-.6390173 1.771-1.045v3.645c0 2.124-5.56 4.5-13 4.5zm13-11.5c0 .856-.958 1.8-2.629 2.6-3.2866201 1.349823-6.8193131 1.9970235-10.371 1.9-3.0636802.0455773-6.1139155-.4142554-9.028-1.361 5.434-.792 10.028-2.885 10.028-6.139v-1.48c6.931.201 12 2.453 12 4.48zm-38.229-5.6c3.554741 1.4782869 7.3802687 2.1937209 11.229 2.1 3.8487313.0937209 7.674259-.6217131 11.229-2.1.6234052-.2889734 1.2166376-.6390173 1.771-1.045v3.645c0 2.124-5.56 4.5-13 4.5s-13-2.376-13-4.5v-3.645c.5543624.4059827 1.1475948.7560266 1.771 1.045zm-3.771 1.12v1.48c0 3.253 4.593 5.347 10.027 6.139-2.9137535.9466893-5.9636509 1.406522-9.027 1.361-3.5516869.0970235-7.08437991-.550177-10.371-1.9-1.671-.8-2.629-1.744-2.629-2.6 0-2.027 5.069-4.279 12-4.48z"/></g></g></g></svg>