<svg height="512" viewBox="0 0 64 64" width="512" xmlns="http://www.w3.org/2000/svg"><g id="mobilephone_&#xB7;_ecommerce_&#xB7;_shopping_&#xB7;_payment_&#xB7;_cart" data-name="mobilephone &#xB7; ecommerce &#xB7; shopping &#xB7; payment &#xB7; cart"><path d="m37 7a4 4 0 0 0 -4-4h-26a4 4 0 0 0 -4 4v2h34z" fill="#9bc9ff"/><path d="m41.4 28.94-12.4.06h12.34z" fill="none"/><path d="m37.51 35.66a2 2 0 0 1 0-2.83l3.83-3.83h-23.34a5 5 0 0 1 -5 5v8a5 5 0 0 1 5 5h20a5 5 0 0 1 5-5v-9l-2.66 2.66a2 2 0 0 1 -2.83 0z" fill="#9bc9ff"/><path d="m19 14h-9.75l.75 6h7z" fill="none"/><circle cx="11" cy="23" fill="none" r="1"/><circle cx="16" cy="23" fill="none" r="1"/><path d="m3 57a4 4 0 0 0 4 4h26a4 4 0 0 0 4-4v-4l-34 .044z" fill="#9bc9ff"/><path d="m10 20h7l2-6h-9.75z" fill="#9bc9ff"/><circle cx="11" cy="23" fill="#9bc9ff" r="1"/><circle cx="16" cy="23" fill="#9bc9ff" r="1"/><path d="m55 26v10.987 2.013h6v-16h-6z" fill="#9bc9ff"/><g fill="#1e81ce"><circle cx="11" cy="23" r="2"/><circle cx="16" cy="23" r="2"/><path d="m17 21a1 1 0 0 0 .949-.684l2-6a1 1 0 0 0 -.949-1.316h-8.867l-.141-1.124a1 1 0 0 0 -.992-.876h-2a1 1 0 0 0 0 2h1.117l.139 1.111v.029l.748 5.984a1 1 0 0 0 .996.876zm-6.117-2-.5-4h7.23l-1.334 4z"/><path d="m61 22h-6a1 1 0 0 0 -1 1v1.38l-2.13-1.06a2.971 2.971 0 0 0 -1.34-.32h-12.53v-16a5 5 0 0 0 -5-5h-26a5 5 0 0 0 -5 5v50a5 5 0 0 0 5 5h26a5 5 0 0 0 5-5v-9h5a1 1 0 0 0 1-1v-7.55a9.012 9.012 0 0 0 7.94-.65l1.34-.8.72-.01v1.01a1 1 0 0 0 1 1h6a1 1 0 0 0 1-1v-16a1 1 0 0 0 -1-1zm-57-15a3.009 3.009 0 0 1 3-3h26a3.009 3.009 0 0 1 3 3v1h-32zm32 50a3.009 3.009 0 0 1 -3 3h-26a3.009 3.009 0 0 1 -3-3v-2.96l32-.04zm0-5-32 .04v-42.04h32v13h-.12a3.008 3.008 0 0 0 -1.89.67l-5.34 4.33h-14.65v-1a1 1 0 0 0 -2 0v22a1 1 0 0 0 2 0v-1h22zm-19.14-22a4.017 4.017 0 0 1 -2.86 2.86v-2.86zm-2.86 13.14a4.017 4.017 0 0 1 2.86 2.86h-2.86zm28 2.86h-2.86a4.017 4.017 0 0 1 2.86-2.86zm0-4.91a5.992 5.992 0 0 0 -4.91 4.91h-18.18a5.992 5.992 0 0 0 -4.91-4.91v-6.18a5.992 5.992 0 0 0 4.91-4.91h20.02l-2.12 2.12a3 3 0 1 0 4.24 4.24l.95-.95zm12-5.1-1.01.01a.966.966 0 0 0 -.5.14l-1.58.95a7.072 7.072 0 0 1 -6.24.48l-.67-.28v-3.88l1.27-1.27.52.18a7.1 7.1 0 0 0 4.42 0l1.11-.37a1 1 0 1 0 -.64-1.9l-1.1.37a5.022 5.022 0 0 1 -3.16 0l-1.1-.37a1.007 1.007 0 0 0 -1.03.24l-4.66 4.66a1.014 1.014 0 0 1 -1.41 0 .99.99 0 0 1 -.29-.71.967.967 0 0 1 .29-.7l3.89-3.89a1 1 0 0 0 0-1.41c-.29-.29-1.09-.24-1.11-.24h-9.18l3.43-2.78a1.026 1.026 0 0 1 .63-.22h14.65a.956.956 0 0 1 .44.11l3.03 1.51zm6 2.01h-4v-14h4z"/><path d="m21 37h-2a1 1 0 0 0 0 2h2a1 1 0 0 0 0-2z"/><path d="m34 38a1 1 0 0 0 1 1h2a1 1 0 0 0 0-2h-2a1 1 0 0 0 -1 1z"/><path d="m16 7h2a1 1 0 0 0 0-2h-2a1 1 0 0 0 0 2z"/><path d="m22 7h2a1 1 0 0 0 0-2h-2a1 1 0 0 0 0 2z"/><path d="m22 56h-5a1 1 0 0 0 0 2h5a1 1 0 0 0 0-2z"/><path d="m27 35h2a1 1 0 0 1 1 1 1 1 0 0 0 2 0 3 3 0 0 0 -3-3v-1a1 1 0 0 0 -2 0v1a3 3 0 0 0 0 6h2a1 1 0 0 1 0 2h-2a1 1 0 0 1 -1-1 1 1 0 0 0 -2 0 3 3 0 0 0 3 3v1a1 1 0 0 0 2 0v-1a3 3 0 0 0 0-6h-2a1 1 0 0 1 0-2z"/><path d="m23 16h8a1 1 0 0 0 0-2h-8a1 1 0 0 0 0 2z"/><path d="m23 19h8a1 1 0 0 0 0-2h-8a1 1 0 0 0 0 2z"/><path d="m23 22h8a1 1 0 0 0 0-2h-8a1 1 0 0 0 0 2z"/></g></g></svg>