<svg height="512" viewBox="0 0 64 64" width="512" xmlns="http://www.w3.org/2000/svg"><g id="Transfer"><path d="m14 9h36v46h-36z" fill="#ffeb99"/><path d="m22 55h28v-28a27.983 27.983 0 0 1 -28 28z" fill="#ffde55"/><path d="m44 3h-24a6 6 0 0 0 -6 6h36a6 6 0 0 0 -6-6z" fill="#2488ff"/><path d="m14 55a6 6 0 0 0 6 6h24a6 6 0 0 0 6-6z" fill="#2488ff"/><circle cx="32" cy="32" fill="#ff9811" r="10"/><path d="m12 37 6-5-6-5v2h-9v6h9z" fill="#7ed63e"/><g fill="#d80027"><path d="m55 29h-9v6h9v2l6-5-6-5z"/><path d="m55 14h-9v6h9v2l6-5-6-5z"/><path d="m55 44h-9v6h9v2l6-5-6-5z"/></g><path d="m29 5h2v2h-2z" fill="#f1f2f2"/><path d="m33 5h2v2h-2z" fill="#f1f2f2"/><path d="m31 25-.006 2a2 2 0 0 0 -1.994 2v2a2 2 0 0 0 2 2h2v2h-2v-1h-2v1a2 2 0 0 0 1.994 2l.006 2h2l-.006-2h.006a2 2 0 0 0 2-2v-2a2 2 0 0 0 -2-2h-2v-2h2v1h2v-1a2 2 0 0 0 -2-2h-.006l.006-2z" fill="#d80027"/><path d="m29 57h6v2h-6z" fill="#f1f2f2"/></g></svg>