<svg id="Capa_1" data-name="Capa 1" xmlns="http://www.w3.org/2000/svg" viewBox="0 0 1200 1200"><defs><style>.cls-1{fill:#29abe2;}</style></defs><title>ICONOS</title><path class="cls-1" d="M849.83,410.81a19.76,19.76,0,0,0,19.76-19.75V321.55H800.08a19.75,19.75,0,0,0-19.75,19.75v49.76a19.75,19.75,0,0,0,19.75,19.75Z"/><path class="cls-1" d="M895.18,341.3v49.76a19.75,19.75,0,0,0,19.75,19.75h49.75a19.76,19.76,0,0,0,19.76-19.75V321.55H914.93A19.75,19.75,0,0,0,895.18,341.3Z"/><path class="cls-1" d="M455.53,639.13h49.75A19.76,19.76,0,0,0,525,619.37v-69.5h-69.5a19.75,19.75,0,0,0-19.75,19.75v49.75A19.76,19.76,0,0,0,455.53,639.13Z"/><path class="cls-1" d="M505.28,410.81A19.75,19.75,0,0,0,525,391.06V321.55h-69.5a19.75,19.75,0,0,0-19.75,19.75v49.76a19.75,19.75,0,0,0,19.75,19.75Z"/><path class="cls-1" d="M341.33,750.52h49.75a19.76,19.76,0,0,0,19.75-19.76v-69.5h-69.5A19.75,19.75,0,0,0,321.58,681v49.75A19.76,19.76,0,0,0,341.33,750.52Z"/><path class="cls-1" d="M525,730.76v-69.5h-69.5A19.75,19.75,0,0,0,435.78,681v49.75a19.76,19.76,0,0,0,19.75,19.76h49.75A19.76,19.76,0,0,0,525,730.76Z"/><path class="cls-1" d="M341.33,639.13h49.75a19.76,19.76,0,0,0,19.75-19.76v-69.5h-69.5a19.75,19.75,0,0,0-19.75,19.75v49.75A19.76,19.76,0,0,0,341.33,639.13Z"/><path class="cls-1" d="M391.08,410.81a19.75,19.75,0,0,0,19.75-19.75V321.55h-69.5a19.75,19.75,0,0,0-19.75,19.75v49.76a19.75,19.75,0,0,0,19.75,19.75Z"/><path class="cls-1" d="M551.93,681v49.75a19.76,19.76,0,0,0,19.75,19.76h49.75a19.76,19.76,0,0,0,19.76-19.76v-69.5H571.68A19.75,19.75,0,0,0,551.93,681Z"/><path class="cls-1" d="M536.07,855.07H515.84V955.94h20.23q25,0,38.82-13.23t13.86-37.2q0-24-13.86-37.21T536.07,855.07Z"/><path class="cls-1" d="M800.08,639.13h49.75a19.76,19.76,0,0,0,19.76-19.76v-69.5H800.08a19.75,19.75,0,0,0-19.75,19.75v49.75A19.76,19.76,0,0,0,800.08,639.13Z"/><path class="cls-1" d="M895.18,569.62v49.75a19.76,19.76,0,0,0,19.75,19.76h49.75a19.76,19.76,0,0,0,19.76-19.76v-69.5H914.93A19.75,19.75,0,0,0,895.18,569.62Z"/><path class="cls-1" d="M884.87,854.57q-21,0-33.33,13.61t-12.36,37.08q0,23.22,12.36,37t33.33,13.73q20.71,0,33.21-13.73t12.48-37q0-23.22-12.36-37T884.87,854.57Z"/><path class="cls-1" d="M296.64,730.76v-69.5H227.13A19.75,19.75,0,0,0,207.38,681v49.75a19.76,19.76,0,0,0,19.75,19.76h49.75A19.76,19.76,0,0,0,296.64,730.76Z"/><path class="cls-1" d="M685.88,639.13h49.75a19.76,19.76,0,0,0,19.76-19.76v-69.5H685.88a19.75,19.75,0,0,0-19.75,19.75v49.75A19.76,19.76,0,0,0,685.88,639.13Z"/><path class="cls-1" d="M227.13,639.13h49.75a19.76,19.76,0,0,0,19.76-19.76v-69.5H227.13a19.75,19.75,0,0,0-19.75,19.75v49.75A19.76,19.76,0,0,0,227.13,639.13Z"/><path class="cls-1" d="M685.88,750.52h49.75a19.76,19.76,0,0,0,19.76-19.76v-69.5H685.88A19.75,19.75,0,0,0,666.13,681v49.75A19.76,19.76,0,0,0,685.88,750.52Z"/><path class="cls-1" d="M600,0C268.63,0,0,268.63,0,600s268.63,600,600,600,600-268.63,600-600S931.37,0,600,0ZM200.81,737.33V674.45a19.76,19.76,0,0,1,19.76-19.75H303.2v82.63a19.75,19.75,0,0,1-19.75,19.75H220.57A19.76,19.76,0,0,1,200.81,737.33Zm30.93-308.58h40.53a30.93,30.93,0,0,1,30.93,30.93V500.2a30.93,30.93,0,0,1-30.93,30.93H231.74a30.93,30.93,0,0,1-30.93-30.93V459.68A30.93,30.93,0,0,1,231.74,428.75Zm-30.93-31.13V334.74A19.76,19.76,0,0,1,220.57,315H303.2v82.63a19.75,19.75,0,0,1-19.75,19.75H220.57A19.76,19.76,0,0,1,200.81,397.62ZM220.57,543.3H303.2v82.64a19.75,19.75,0,0,1-19.75,19.75H220.57a19.76,19.76,0,0,1-19.76-19.75V563.06A19.76,19.76,0,0,1,220.57,543.3ZM404.72,927.63H350.29v55.76a22.14,22.14,0,0,1-22.11,22.11h-3.54a22.14,22.14,0,0,1-22.11-22.11V927.63H248.1a22.11,22.11,0,0,1,0-44.21h54.43v-56.2a22.14,22.14,0,0,1,22.11-22.11h3.54a22.14,22.14,0,0,1,22.11,22.11v56.2h54.43a22.11,22.11,0,1,1,0,44.21ZM345.94,428.75h40.53a30.93,30.93,0,0,1,30.93,30.93V500.2a30.93,30.93,0,0,1-30.93,30.93H345.94A30.93,30.93,0,0,1,315,500.2V459.68A30.93,30.93,0,0,1,345.94,428.75ZM315,397.62V334.74A19.76,19.76,0,0,1,334.77,315H417.4v82.63a19.75,19.75,0,0,1-19.75,19.75H334.77A19.76,19.76,0,0,1,315,397.62ZM334.77,543.3H417.4v82.64a19.75,19.75,0,0,1-19.75,19.75H334.77A19.76,19.76,0,0,1,315,625.94V563.06A19.76,19.76,0,0,1,334.77,543.3Zm0,111.4H417.4v82.63a19.75,19.75,0,0,1-19.75,19.75H334.77A19.76,19.76,0,0,1,315,737.33V674.45A19.76,19.76,0,0,1,334.77,654.7Zm94.44,82.63V674.45A19.76,19.76,0,0,1,449,654.7H531.6v82.63a19.76,19.76,0,0,1-19.76,19.75H449A19.76,19.76,0,0,1,429.21,737.33Zm30.93-308.58h40.53a30.93,30.93,0,0,1,30.93,30.93V500.2a30.93,30.93,0,0,1-30.93,30.93H460.14a30.93,30.93,0,0,1-30.93-30.93V459.68A30.93,30.93,0,0,1,460.14,428.75Zm-30.93-31.13V334.74A19.76,19.76,0,0,1,449,315H531.6v82.63a19.76,19.76,0,0,1-19.76,19.75H449A19.76,19.76,0,0,1,429.21,397.62ZM449,543.3H531.6v82.64a19.76,19.76,0,0,1-19.76,19.75H449a19.76,19.76,0,0,1-19.76-19.75V563.06A19.76,19.76,0,0,1,449,543.3ZM620.83,951.57a77.82,77.82,0,0,1-32,31.34Q568,994.15,539.81,994.14H473.15V817.62h66.66q28.47,0,49.19,11a76.64,76.64,0,0,1,31.83,31q11.11,20,11.12,46T620.83,951.57ZM628,757.08H565.12a19.76,19.76,0,0,1-19.76-19.75V674.45a19.76,19.76,0,0,1,19.76-19.75h82.63v82.63A19.75,19.75,0,0,1,628,757.08ZM576.29,428.75h40.53a30.93,30.93,0,0,1,30.93,30.93V500.2a30.93,30.93,0,0,1-30.93,30.93H576.29a30.93,30.93,0,0,1-30.93-30.93V459.68A30.93,30.93,0,0,1,576.29,428.75Zm-30.93-31.13V334.74A19.76,19.76,0,0,1,565.12,315h82.63v82.63A19.75,19.75,0,0,1,628,417.37H565.12A19.76,19.76,0,0,1,545.36,397.62ZM565.12,543.3h82.63v82.64A19.75,19.75,0,0,1,628,645.69H565.12a19.76,19.76,0,0,1-19.76-19.75V563.06A19.76,19.76,0,0,1,565.12,543.3ZM783,851.58H735.06V994.14H692.12V851.58H644.68v-34H783ZM690.49,428.75H731A30.93,30.93,0,0,1,762,459.68V500.2A30.93,30.93,0,0,1,731,531.13H690.49a30.93,30.93,0,0,1-30.93-30.93V459.68A30.93,30.93,0,0,1,690.49,428.75Zm-30.93-31.13V334.74A19.76,19.76,0,0,1,679.32,315H762v82.63a19.75,19.75,0,0,1-19.75,19.75H679.32A19.76,19.76,0,0,1,659.56,397.62ZM679.32,543.3H762v82.64a19.75,19.75,0,0,1-19.75,19.75H679.32a19.76,19.76,0,0,1-19.76-19.75V563.06A19.76,19.76,0,0,1,679.32,543.3Zm0,111.4H762v82.63a19.75,19.75,0,0,1-19.75,19.75H679.32a19.76,19.76,0,0,1-19.76-19.75V674.45A19.76,19.76,0,0,1,679.32,654.7Zm94.44,82.63V674.45a19.76,19.76,0,0,1,19.76-19.75h82.63v82.63a19.75,19.75,0,0,1-19.75,19.75H793.52A19.76,19.76,0,0,1,773.76,737.33Zm30.93-308.58h40.53a30.93,30.93,0,0,1,30.93,30.93V500.2a30.93,30.93,0,0,1-30.93,30.93H804.69a30.93,30.93,0,0,1-30.93-30.93V459.68A30.93,30.93,0,0,1,804.69,428.75Zm-30.93-31.13V334.74A19.76,19.76,0,0,1,793.52,315h82.63v82.63a19.75,19.75,0,0,1-19.75,19.75H793.52A19.76,19.76,0,0,1,773.76,397.62ZM793.52,543.3h82.63v82.64a19.75,19.75,0,0,1-19.75,19.75H793.52a19.76,19.76,0,0,1-19.76-19.75V563.06A19.76,19.76,0,0,1,793.52,543.3ZM962.14,952a85.16,85.16,0,0,1-32.2,32.33,93.29,93.29,0,0,1-90.14,0A85.19,85.19,0,0,1,807.59,952q-11.87-20.73-11.86-46.69t11.86-46.57a85.5,85.5,0,0,1,32.21-32.21,89.32,89.32,0,0,1,45.07-11.61q25,0,45.31,11.61a84.64,84.64,0,0,1,32.09,32.21Q974,879.28,974,905.26T962.14,952ZM991,737.33a19.75,19.75,0,0,1-19.75,19.75H908.37a19.76,19.76,0,0,1-19.76-19.75V674.45a19.76,19.76,0,0,1,19.76-19.75H991Zm0-111.39a19.75,19.75,0,0,1-19.75,19.75H908.37a19.76,19.76,0,0,1-19.76-19.75V563.06a19.76,19.76,0,0,1,19.76-19.76H991Zm0-125.74a30.93,30.93,0,0,1-30.93,30.93H919.54a30.93,30.93,0,0,1-30.93-30.93V459.68a30.93,30.93,0,0,1,30.93-30.93h40.53A30.93,30.93,0,0,1,991,459.68Zm0-102.58a19.75,19.75,0,0,1-19.75,19.75H908.37a19.76,19.76,0,0,1-19.76-19.75V334.74A19.76,19.76,0,0,1,908.37,315H991Zm0-123.26a31,31,0,0,1-31,31H230.5a31,31,0,0,1-31-31V243.6a31,31,0,0,1,31-31H960a31,31,0,0,1,31,31Z"/><path class="cls-1" d="M735.63,410.81a19.76,19.76,0,0,0,19.76-19.75V321.55H685.88a19.75,19.75,0,0,0-19.75,19.75v49.76a19.75,19.75,0,0,0,19.75,19.75Z"/><path class="cls-1" d="M571.68,639.13h49.75a19.76,19.76,0,0,0,19.76-19.76v-69.5H571.68a19.75,19.75,0,0,0-19.75,19.75v49.75A19.76,19.76,0,0,0,571.68,639.13Z"/><path class="cls-1" d="M621.43,410.81a19.76,19.76,0,0,0,19.76-19.75V321.55H571.68a19.75,19.75,0,0,0-19.75,19.75v49.76a19.75,19.75,0,0,0,19.75,19.75Z"/><path class="cls-1" d="M276.88,410.81a19.76,19.76,0,0,0,19.76-19.75V321.55H227.13a19.75,19.75,0,0,0-19.75,19.75v49.76a19.75,19.75,0,0,0,19.75,19.75Z"/><path class="cls-1" d="M869.59,730.76v-69.5H800.08A19.75,19.75,0,0,0,780.33,681v49.75a19.76,19.76,0,0,0,19.75,19.76h49.75A19.76,19.76,0,0,0,869.59,730.76Z"/><path class="cls-1" d="M895.18,681v49.75a19.76,19.76,0,0,0,19.75,19.76h49.75a19.76,19.76,0,0,0,19.76-19.76v-69.5H914.93A19.75,19.75,0,0,0,895.18,681Z"/></svg>