<svg id="Capa_1" data-name="Capa 1" xmlns="http://www.w3.org/2000/svg" viewBox="0 0 1200 1200"><defs><style>.cls-1{fill:#29abe2;}.cls-2{fill:#fff;}</style></defs><title>ICONOS</title><path class="cls-1" d="M600,0C268.63,0,0,268.63,0,600s268.63,600,600,600,600-268.63,600-600S931.37,0,600,0ZM422.23,850.43H245.71V783.76q0-28.46,11-49.18a76.72,76.72,0,0,1,31-31.84q20-11.1,45.94-11.11t46.07,11.11a77.91,77.91,0,0,1,31.34,32q11.24,20.85,11.23,49.06Zm0-219H279.66V678.9h-34V540.58h34v47.93H422.23Zm-9.86-147.68A85.29,85.29,0,0,1,380,516q-20.71,11.85-46.69,11.85T286.78,516a85.5,85.5,0,0,1-32.21-32.21A89.35,89.35,0,0,1,243,438.71q0-25,11.61-45.32a84.54,84.54,0,0,1,32.21-32.08q20.6-11.73,46.56-11.74T380,361.43a85.29,85.29,0,0,1,32.34,32.21,93.29,93.29,0,0,1,0,90.14ZM479,458.54q0-57.6,33.48-89.27T600,337.59q52.54,0,86,31.68t33.47,89.27q0,57.6-33.47,89.27t-86,31.67q-54,0-87.47-31.67T479,458.54ZM640.22,855.21h0c-39.57,0-64.73-42.35-45.81-77.1L815.5,372a52.16,52.16,0,0,1,45.81-27.22c39.58,0,64.74,42.34,45.82,77.1L686,828A52.17,52.17,0,0,1,640.22,855.21ZM988.7,830.37q-33.12,32.05-86.39,32-52.56,0-86-32t-33.47-89.63q0-57.59,33.47-89.27t86-31.67q53.28,0,86.39,31.67t33.12,89.27Q1021.82,798.36,988.7,830.37Z"/><path class="cls-1" d="M902.31,693.23q-18,0-28.07,12.6t-10.08,34.91q0,23.06,10.08,35.64T902.31,789q17.28,0,27.72-12.6t10.44-35.64q0-22.31-10.44-34.91T902.31,693.23Z"/><path class="cls-1" d="M627.3,493.45q10.8-12.58,10.8-34.91t-10.8-34.92Q616.5,411,598.51,411q-17.28,0-27.36,12.6t-10.08,34.92q0,22.32,10.08,34.91t27.36,12.6Q616.5,506.05,627.3,493.45Z"/><path class="cls-1" d="M333.59,734.83q-24,0-37.2,13.85t-13.23,38.83v20.22H384V787.51q0-25-13.23-38.83T333.59,734.83Z"/><path class="cls-1" d="M370.3,405.5Q356.56,393,333.34,393t-36.95,12.36q-13.72,12.36-13.73,33.33T296.27,472q13.61,12.36,37.07,12.36,23.22,0,37-12.36T384,438.71Q384,418,370.3,405.5Z"/><path class="cls-2" d="M640.22,846.21a43.17,43.17,0,0,1-37.91-63.8L823.4,376.31a43.16,43.16,0,1,1,75.82,41.28L678.13,823.69A43.13,43.13,0,0,1,640.22,846.21Z"/><path class="cls-1" d="M861.31,362.79a34.16,34.16,0,0,1,30,50.5L670.23,819.38a34.16,34.16,0,1,1-60-32.67L831.31,380.62a34.13,34.13,0,0,1,30-17.83m0-18A52.16,52.16,0,0,0,815.5,372L594.41,778.11c-18.92,34.75,6.24,77.1,45.81,77.1h0A52.17,52.17,0,0,0,686,828l221.09-406.1c18.92-34.76-6.24-77.1-45.82-77.1Z"/><path class="cls-2" d="M600,570.48c-33.93,0-60.52-9.55-81.29-29.21S488,494.69,488,458.54s10-63.21,30.66-82.74S566.5,346.59,600,346.59c32.94,0,59.06,9.56,79.84,29.21s30.66,46.59,30.66,82.74-10,63.21-30.66,82.73S632.91,570.48,600,570.48ZM598.51,402c-14.34,0-25.9,5.38-34.39,16-8,10-12,23.62-12,40.54s4.06,30.56,12.06,40.54c8.46,10.59,20,16,34.38,16,14.69,0,26.68-5.3,35.63-15.74,8.6-10,13-23.75,13-40.77s-4.36-30.73-13-40.78C625.17,407.32,613.19,402,598.51,402Z"/><path class="cls-1" d="M600,355.59c30.53,0,54.63,8.75,73.65,26.75,18.74,17.74,27.85,42.66,27.85,76.2S692.34,517,673.6,534.73c-19,18-43.11,26.75-73.65,26.75-31.52,0-56.08-8.75-75.1-26.75C506.11,517,497,492.08,497,458.54s9.11-58.46,27.85-76.2c19-18,43.59-26.75,75.1-26.75m-1.44,168.46c17.19,0,31.88-6.53,42.45-18.88,10-11.71,15.14-27.4,15.14-46.63S651,423.63,641,411.9C630.37,399.55,615.69,393,598.51,393c-17,0-31.28,6.69-41.41,19.35-9.31,11.63-14,27.16-14,46.17s4.72,34.55,14,46.15c10.12,12.67,24.44,19.36,41.42,19.36M600,337.59q-54,0-87.47,31.68T479,458.54q0,57.6,33.48,89.27T600,579.48q52.54,0,86-31.67t33.47-89.27q0-57.6-33.47-89.27t-86-31.68Zm-1.44,168.46q-17.28,0-27.36-12.6t-10.08-34.91q0-22.32,10.08-34.92T598.51,411q18,0,28.79,12.6t10.8,34.92q0,22.32-10.8,34.91t-28.79,12.6Z"/><path class="cls-2" d="M902.31,853.41c-32.93,0-59-9.66-79.8-29.54-20.38-19.49-30.7-47.45-30.7-83.13,0-36.14,10-63.2,30.66-82.73s46.89-29.21,79.84-29.21c33.41,0,59.64,9.54,80.17,29.18,20.13,19.27,30.34,47.11,30.34,82.76s-10.22,63.67-30.37,83.17C961.92,843.76,935.71,853.41,902.31,853.41Zm0-169.18c-14.81,0-26.62,5.37-35.1,16-8,10-12.05,23.62-12.05,40.53,0,17.41,4.05,31.29,12.05,41.27,8.47,10.59,20.28,16,35.1,16,14.27,0,25.93-5.34,34.65-15.86,8.3-10,12.51-23.94,12.51-41.38,0-16.94-4.21-30.62-12.51-40.65C928.23,689.56,916.57,684.23,902.31,684.23Z"/><path class="cls-1" d="M902.31,637.8c31,0,55.17,8.73,74,26.68,18.54,17.75,27.56,42.7,27.56,76.26s-9,58.71-27.63,76.7c-18.76,18.15-42.93,27-73.88,27-30.5,0-54.57-8.84-73.58-27-18.79-18-27.92-43-27.92-76.63s9.11-58.45,27.84-76.19c19-18,43.12-26.75,73.66-26.75m0,169.18c16.84,0,31.22-6.61,41.58-19.12,9.67-11.67,14.58-27.53,14.58-47.12,0-19.09-4.9-34.7-14.59-46.41-10.37-12.49-24.74-19.1-41.57-19.1-17.43,0-32,6.69-42.13,19.35-9.3,11.62-14,27.16-14,46.16,0,19.5,4.72,35.28,14,46.88C870.3,800.28,884.87,807,902.31,807m0-187.18q-52.56,0-86,31.67t-33.47,89.27q0,57.62,33.47,89.63t86,32q53.28,0,86.39-32t33.12-89.63q0-57.59-33.12-89.27T902.31,619.8Zm0,169.18q-18,0-28.07-12.6t-10.08-35.64q0-22.31,10.08-34.91t28.07-12.6q17.28,0,27.72,12.6t10.44,34.91q0,23.06-10.44,35.64T902.31,789Z"/></svg>