<svg id="Capa_1" data-name="Capa 1" xmlns="http://www.w3.org/2000/svg" viewBox="0 0 1200 1200"><defs><style>.cls-1{fill:#29abe2;}</style></defs><title>ICONOS</title><path class="cls-1" d="M600,0C268.63,0,0,268.63,0,600s268.63,600,600,600,600-268.63,600-600S931.37,0,600,0Zm44.4,493.07a38,38,0,0,1-35.13,50.55L552.71,661.7a17.38,17.38,0,0,1-23.26,8.15,17.56,17.56,0,0,1-8.18-23.36l56.67-118.31a38.13,38.13,0,0,1-7.34-24.81L385.15,410.28a15,15,0,1,1,13.46-26.81l185.45,93.09a38,38,0,0,1,60.34,16.51ZM497.26,1018.19a77.85,77.85,0,0,1-32,31.34q-20.85,11.23-49.06,11.23H349.57V884.24h66.67q28.45,0,49.18,11a76.72,76.72,0,0,1,31.84,31q11.1,20,11.11,46T497.26,1018.19Zm162.16-100H611.49v142.57h-43V918.19H521.1v-34H659.42Zm179.15,100.38a85.33,85.33,0,0,1-32.21,32.33,93.29,93.29,0,0,1-90.14,0A85.33,85.33,0,0,1,684,1018.57q-11.85-20.73-11.85-46.69T684,925.31a85.58,85.58,0,0,1,32.21-32.21,89.35,89.35,0,0,1,45.07-11.61q25,0,45.32,11.61a84.61,84.61,0,0,1,32.08,32.21q11.73,20.6,11.74,46.57T838.57,1018.57Zm81.27-486.43A329,329,0,1,1,570.36,182.66a19.9,19.9,0,0,1,21.14,19.86v.23a19.94,19.94,0,0,1-18.77,19.85C426.89,232,310.15,350.06,302.86,496.45c-8.48,170.24,133,311.67,303.19,303.19,146.39-7.3,264.45-124,273.85-269.87A20,20,0,0,1,899.75,511H900A19.9,19.9,0,0,1,919.84,532.14Z"/><path class="cls-1" d="M412.49,921.69H392.27v100.87h20.22q25,0,38.83-13.23t13.85-37.2q0-24-13.85-37.21T412.49,921.69Z"/><path class="cls-1" d="M761.29,921.19q-21,0-33.33,13.61T715.6,971.88q0,23.22,12.36,37t33.33,13.73q20.73,0,33.21-13.73t12.48-37q0-23.24-12.36-37T761.29,921.19Z"/></svg>