<svg id="Capa_1" data-name="Capa 1" xmlns="http://www.w3.org/2000/svg" viewBox="0 0 1200 1200"><defs><style>.cls-1{fill:#29abe2;}</style></defs><title>ICONOS</title><path class="cls-1" d="M600,0C268.63,0,0,268.63,0,600s268.63,600,600,600,600-268.63,600-600S931.37,0,600,0Zm485,529.5v320a34.54,34.54,0,0,1-34.5,34.5h-556A34.54,34.54,0,0,1,460,849.5v-150H149.5a29,29,0,0,1-29-29V436H107V363h13.5V350.5a29,29,0,0,1,29-29h556a29,29,0,0,1,29,29V363H747v73H734.5v59h316A34.54,34.54,0,0,1,1085,529.5Z"/><path class="cls-1" d="M734.5,500.5h316a29,29,0,0,1,29,29v320a29,29,0,0,1-29,29h-556a29,29,0,0,1-29-29v-150H460v150A34.54,34.54,0,0,0,494.5,884h556a34.54,34.54,0,0,0,34.5-34.5v-320a34.54,34.54,0,0,0-34.5-34.5h-316Z"/><path class="cls-1" d="M465.5,529.5a29,29,0,0,1,29-29h240V495h-240A34.54,34.54,0,0,0,460,529.5v170h5.5Z"/><path class="cls-1" d="M1050.5,506a23.52,23.52,0,0,1,23.5,23.5v320a23.52,23.52,0,0,1-23.5,23.5h-556A23.52,23.52,0,0,1,471,849.5v-150h-5.5v150a29,29,0,0,0,29,29h556a29,29,0,0,0,29-29v-320a29,29,0,0,0-29-29h-316V506Z"/><path class="cls-1" d="M465.5,529.5v170H471v-170A23.52,23.52,0,0,1,494.5,506h240v-5.5h-240A29,29,0,0,0,465.5,529.5Z"/><rect class="cls-1" x="107" y="363" width="13.5" height="73"/><rect class="cls-1" x="734.5" y="363" width="12.5" height="73"/><rect class="cls-1" x="120.5" y="363" width="614" height="73"/><path class="cls-1" d="M537.06,768.07l4.18-6.51c1.07-1.73,2.08-3.28,3-5h.12c1,1.73,2,3.34,3.1,5l4.24,6.51h6l-10.15-14.92,9.85-14h-5.67l-4.06,6.15c-.95,1.55-1.91,3-2.86,4.77h-.18c-1-1.61-1.85-3.1-2.93-4.72l-4.12-6.2h-5.85l9.79,14.14-10.26,14.75Z"/><path class="cls-1" d="M564.7,768.07l4.18-6.51c1.07-1.73,2.08-3.28,3-5H572c1,1.73,2,3.34,3.1,5l4.24,6.51h6L575.2,753.15l9.85-14h-5.67l-4.06,6.15c-1,1.55-1.91,3-2.86,4.77h-.18c-1-1.61-1.85-3.1-2.93-4.72l-4.12-6.2h-5.85l9.79,14.14-10.26,14.75Z"/><path class="cls-1" d="M592.34,768.07l4.18-6.51c1.07-1.73,2.08-3.28,3-5h.12c1,1.73,2,3.34,3.1,5l4.24,6.51h6l-10.15-14.92,9.85-14H607L603,745.33c-1,1.55-1.91,3-2.86,4.77h-.18c-1-1.61-1.85-3.1-2.93-4.72l-4.12-6.2H587l9.79,14.14-10.26,14.75Z"/><path class="cls-1" d="M620,768.07l4.18-6.51c1.07-1.73,2.09-3.28,3-5h.12c1,1.73,2,3.34,3.1,5l4.24,6.51h6l-10.15-14.92,9.85-14h-5.67l-4.06,6.15c-1,1.55-1.91,3-2.86,4.77h-.18c-1-1.61-1.85-3.1-2.93-4.72l-4.12-6.2h-5.84l9.79,14.14-10.27,14.75Z"/><path class="cls-1" d="M660.27,768.07l4.18-6.51c1.08-1.73,2.09-3.28,3-5h.12c1,1.73,2,3.34,3.1,5l4.24,6.51h6l-10.15-14.92,9.85-14H675l-4.06,6.15c-1,1.55-1.91,3-2.87,4.77h-.18c-1-1.61-1.85-3.1-2.92-4.72l-4.12-6.2H655l9.79,14.14-10.27,14.75Z"/><path class="cls-1" d="M687.91,768.07l4.18-6.51c1.08-1.73,2.09-3.28,3-5h.12c1,1.73,2,3.34,3.1,5l4.24,6.51h6l-10.15-14.92,9.85-14H702.6l-4.06,6.15c-1,1.55-1.91,3-2.87,4.77h-.17c-1-1.61-1.86-3.1-2.93-4.72l-4.12-6.2H682.6l9.79,14.14-10.27,14.75Z"/><path class="cls-1" d="M715.55,768.07l4.18-6.51c1.08-1.73,2.09-3.28,3-5h.12c1,1.73,2,3.34,3.1,5l4.24,6.51h6l-10.15-14.92,9.85-14h-5.67l-4.06,6.15c-1,1.55-1.91,3-2.87,4.77h-.18c-1-1.61-1.85-3.1-2.92-4.72l-4.12-6.2h-5.85L720,753.32l-10.27,14.75Z"/><path class="cls-1" d="M743.19,768.07l4.18-6.51c1.08-1.73,2.09-3.28,3-5h.12c1,1.73,2,3.34,3.1,5l4.24,6.51h6L753.7,753.15l9.85-14h-5.67l-4.06,6.15c-1,1.55-1.91,3-2.87,4.77h-.17c-1-1.61-1.86-3.1-2.93-4.72l-4.12-6.2h-5.85l9.79,14.14L737.4,768.07Z"/><path class="cls-1" d="M803.85,739.18h-5.68l-4,6.15c-1,1.55-1.91,3-2.87,4.77h-.18c-1-1.61-1.85-3.1-2.92-4.72l-4.12-6.2h-5.85L788,753.32,777.7,768.07h5.79l4.18-6.51c1.07-1.73,2.09-3.28,3-5h.12c1,1.73,2,3.34,3.11,5l4.23,6.51h6L794,753.15Z"/><path class="cls-1" d="M818.89,750.1h-.18c-1-1.61-1.85-3.1-2.92-4.72l-4.12-6.2h-5.85l9.79,14.14-10.27,14.75h5.79l4.18-6.51c1.07-1.73,2.09-3.28,3-5h.12c1,1.73,2,3.34,3.11,5l4.23,6.51h6l-10.14-14.92,9.85-14h-5.68l-4.06,6.15C820.8,746.88,819.84,748.37,818.89,750.1Z"/><path class="cls-1" d="M838.77,768.07l4.18-6.51c1.07-1.73,2.09-3.28,3-5h.12c1,1.73,2,3.34,3.11,5l4.24,6.51h6l-10.14-14.92,9.85-14h-5.67l-4.06,6.15c-1,1.55-1.91,3-2.87,4.77h-.18c-1-1.61-1.85-3.1-2.92-4.72l-4.12-6.2h-5.85l9.79,14.14L833,768.07Z"/><path class="cls-1" d="M866.41,768.07l4.18-6.51c1.07-1.73,2.09-3.28,3-5h.12c1,1.73,2,3.34,3.11,5l4.24,6.51h6l-10.14-14.92,9.85-14H881.1L877,745.33c-1,1.55-1.91,3-2.87,4.77H874c-1-1.61-1.85-3.1-2.92-4.72l-4.12-6.2H861.1l9.79,14.14-10.27,14.75Z"/><path class="cls-1" d="M927.06,739.18h-5.67l-4.06,6.15c-1,1.55-1.91,3-2.86,4.77h-.18c-1-1.61-1.85-3.1-2.93-4.72l-4.12-6.2h-5.85l9.79,14.14-10.26,14.75h5.79l4.18-6.51c1.07-1.73,2.08-3.28,3-5h.12c1,1.73,2,3.34,3.1,5l4.24,6.51h6l-10.15-14.92Z"/><path class="cls-1" d="M934.35,768.07l4.18-6.51c1.07-1.73,2.08-3.28,3-5h.12c1,1.73,2,3.34,3.1,5l4.24,6.51h6l-10.15-14.92,9.85-14H949L945,745.33c-1,1.55-1.91,3-2.86,4.77h-.18c-1-1.61-1.85-3.1-2.93-4.72l-4.12-6.2H929l9.79,14.14-10.26,14.75Z"/><path class="cls-1" d="M982.34,739.18h-5.67l-4.06,6.15c-1,1.55-1.91,3-2.86,4.77h-.18c-1-1.61-1.85-3.1-2.93-4.72l-4.12-6.2h-5.85l9.79,14.14L956.2,768.07H962l4.18-6.51c1.07-1.73,2.08-3.28,3-5h.12c1,1.73,2,3.34,3.1,5l4.24,6.51h6l-10.15-14.92Z"/><path class="cls-1" d="M1010,739.18h-5.67l-4.06,6.15c-1,1.55-1.91,3-2.86,4.77h-.18c-1-1.61-1.85-3.1-2.93-4.72l-4.11-6.2h-5.85l9.79,14.14-10.27,14.75h5.79l4.18-6.51c1.07-1.73,2.09-3.28,3-5H997c1,1.73,2,3.34,3.1,5l4.24,6.51h6l-10.15-14.92Z"/><path class="cls-1" d="M563,628a20,20,0,0,1,11.45,3.26,19.33,19.33,0,0,1,7.14,8.94h21q-3-14.06-13.3-22.3t-26-8.25a41,41,0,0,0-21,5.28,36,36,0,0,0-14,14.82,50.33,50.33,0,0,0,0,43.45,35.92,35.92,0,0,0,14,14.81,40.93,40.93,0,0,0,21,5.29q15.69,0,26-8.31t13.3-22.25h-21a19.4,19.4,0,0,1-7.14,8.83A20,20,0,0,1,563,674.84a17.46,17.46,0,0,1-14-6.33q-5.36-6.33-5.35-17T549,634.41A17.42,17.42,0,0,1,563,628Z"/><path class="cls-1" d="M672.75,651.72a23.85,23.85,0,0,0,4.94-15.22,26.56,26.56,0,0,0-3.37-13.42,23.32,23.32,0,0,0-10.11-9.23q-6.74-3.37-16.5-3.37H613.79v82.14h19.86v-31h4.53l17.78,31h22l-19.52-32.3Q667.81,658,672.75,651.72Zm-18.07-6.33c-1.86,1.74-4.76,2.62-8.71,2.62H633.65v-20.8H646c3.87,0,6.76.93,8.65,2.79a10.23,10.23,0,0,1,2.85,7.67Q657.47,642.79,654.68,645.39Z"/><path class="cls-1" d="M724.24,692.62H738.8V676.7h-5A29,29,0,0,1,724.24,692.62Z"/><rect class="cls-1" x="734.5" y="643.48" width="0.81" height="14.99"/><rect class="cls-1" x="734.5" y="610.48" width="4.3" height="15.8"/><path class="cls-1" d="M687.68,692.62h36.56a29,29,0,0,0,9.59-15.92H707.54V658.46h27v-15h-27v-17.2h27v-15.8H687.68Z"/><path class="cls-1" d="M803.92,687.39a36.21,36.21,0,0,0,14.87-14.58,46.9,46.9,0,0,0,0-42.81A35.69,35.69,0,0,0,804,615.59q-9.65-5.12-22.88-5.11h-31v82.14h31Q794.22,692.62,803.92,687.39Zm-34-12.55V627.91h9.41q11.63,0,18.07,6.15t6.45,17.32q0,11.14-6.45,17.31t-18.07,6.15Z"/><rect class="cls-1" x="835.23" y="610.48" width="19.87" height="82.14"/><polygon class="cls-1" points="885.53 692.62 905.52 692.62 905.52 626.28 927.82 626.28 927.82 610.48 863.46 610.48 863.46 626.28 885.53 626.28 885.53 692.62"/><path class="cls-1" d="M954.25,688a43.44,43.44,0,0,0,42,0,39.63,39.63,0,0,0,15-15,45.63,45.63,0,0,0,.06-43.4,39.37,39.37,0,0,0-14.93-15,43.65,43.65,0,0,0-42.06,0,39.78,39.78,0,0,0-15,15,45.41,45.41,0,0,0,0,43.4A39.56,39.56,0,0,0,954.25,688Zm5.46-54q5.76-6.33,15.52-6.34t15.51,6.39q5.75,6.41,5.75,17.2t-5.81,17.2q-5.82,6.39-15.45,6.38t-15.52-6.38q-5.75-6.39-5.75-17.2T959.71,634Z"/></svg>