<svg id="Capa_1" data-name="Capa 1" xmlns="http://www.w3.org/2000/svg" viewBox="0 0 1200 1200"><defs><style>.cls-1{fill:#29abe2;}</style></defs><title>ICONOS</title><path class="cls-1" d="M600,0C268.63,0,0,268.63,0,600s268.63,600,600,600,600-268.63,600-600S931.37,0,600,0ZM833.1,458.51c27.48,0,21.77,19.49,21.77,43.52s5.71,43.53-21.77,43.53S783.36,526.08,783.36,502,805.64,458.51,833.1,458.51ZM719.24,866.93c-66.15,6.3-155.56,6-185.67-2.46-4.79,3.12-21.07,11.57-41.65-1.62-1.73-3.08-3.5-6-5.29-8.85A112.36,112.36,0,1,1,281.1,868.57H231s0-.13.1-.36c-16.71.17-47.75-.11-47.75-.11s14.45-91.89,56-146.11a126.85,126.85,0,0,1,13.59-15.06H171.3a3.89,3.89,0,0,1-3.9-3.9V469.13a3.89,3.89,0,0,1,3.9-3.9H405.21a3.89,3.89,0,0,1,3.88,3.9V570.75c2.9-22.42,7.67-52,14.59-72.18,11.55-33.72,11.44-55.19,29.38-106.89,17.48-50.36,59-67.12,62.95-67.62l.63.37a117.11,117.11,0,0,0,17.16-18.3c-.85-2.83-2.78-9.27-5-16.91l-.7.65S515.37,273,511.15,247.32s14.47-40.23,21.19-48.3S561.11,182,576,182c34.48.11,50.72,20,50.72,20s10.37-2.9,34.28-3.12l.78-.55a11.34,11.34,0,0,1,2.26.53c.85,0,1.58,0,2.46,0-.61.05-1.16.2-1.74.3,5.06,1.92,11.51,7.31,7,16.91-5.46,11.67-11.69,9.92-22.26,11.34-5.91.8-11.53,1.2-16.36,1.4a67.18,67.18,0,0,1-4.82,6.27,145.19,145.19,0,0,1,3.59,34.75,116.32,116.32,0,0,0,8.56,13.93c1.24,4.19-4.86,7.16-10.69,9.22-2.46,13.52-7,24.12-13.44,27.61a48.06,48.06,0,0,1-15.68,5.68.36.36,0,0,1,.07.1l-16.27,2.11c-6.38,5.53-14.6,13.86-20.35,24l3.22,1.9c.63,3,1.08,5.86,1.58,8.77,10.65,22.92,25.55,65.37,31.74,71.21,16.75,15.79,104.72,15,104.72,15l-.05,2.34,7.93.71.22,5c2.42.12,4.3.21,5.26.23,3.81.06,34.17-9.56,38-8.54a19.86,19.86,0,0,1,4.91,3c3.45-5.09,9.72-7.47,14.67-5.17,5.39,2.5,7.1,9.47,3.57,15.51L778.12,466l1.19,1.06s6.78,13.41-5.38,7.9l-.09,0-8.74,18.26c.21,15.23,15.54,41.46,33.82,60.95,27.7,29.58,107.24,77.73,108.8,177.2-44.3,4.66-93.27,22.54-124.36,64.5C751.52,838.8,743.73,864.6,719.24,866.93Zm307,38.76A112.31,112.31,0,1,1,808,868.57H758s30.77-114.63,136.93-123.09c104.78-8.35,137.71,76.93,137.71,76.93s-5.33,30.22-29.43,15.31A111.62,111.62,0,0,1,1026.23,905.69Z"/><path class="cls-1" d="M726.17,548.82a12.77,12.77,0,0,1-8.48-4.42c-4.15-4.53-5.77-13.42-2.26-19.34l4.68-7.43c-3.29,1.68-6.41,3.17-9.83,3.33-11.34.5-14-.24-18.41-.91-1.89-.29-7.83-1-14-1.72l-.94,10.22-10.4-.88-.63,7.5s-78-7.7-121.06-19.4c-3.33,14.05-6,24.93-8.2,33.21,50.76,11.23,148.55,33.48,152.76,34.81,12.24,3.89,13.35,17.81,12.79,23.37s-34.8,167.67-34.8,167.67l-11.07-1.32s0,.11,0,.16l-6.84-.76-1.06,5.81,44.23,29.88,1.76.43s15.71-1,19.43,5.43a4.1,4.1,0,0,1,.31,1.75c32.13-22.33,59.09-72.86,47.48-181.27C758.11,602.44,735.5,573.1,726.17,548.82Z"/><path class="cls-1" d="M822,841.25a112.72,112.72,0,0,1,47-38.47c-11.92,4.69-21.61,10.67-28,16.2A106.42,106.42,0,0,0,822,841.25Z"/><path class="cls-1" d="M310.37,823.75a111.84,111.84,0,0,1,11-9,69.3,69.3,0,0,0-6.62,5Q312.46,821.7,310.37,823.75Z"/><path class="cls-1" d="M650.54,206.25l6.17-4.34A32.72,32.72,0,0,0,650.54,206.25Z"/><path class="cls-1" d="M737.57,489c.11,0,.31.2.44.27l11.87-18.83c-5.35,1.4-8.48,4.68-13.42,5.58-9.54,1.74-15.2-.26-19-.33-.61,0-1.76,0-3.2,0l.47,10.95-10,.49-.13,7.68s-10,.16-24.52,0l-.14,1.52c7.41,1.28,14,2.6,16.3,2.95C700.6,500,733.34,487.19,737.57,489Z"/><path class="cls-1" d="M409.09,619h1.17c-.43-.3-.79-.61-1.17-.92Z"/><path class="cls-1" d="M611.77,823.07c-14.29-6.68-9.25-16.4-3.36-32.83,0-.07.21-.1.48-.11,1.55-5.43,3.31-13.09,5-21.17l-10.08-1.11s8.41-43.11,24.48-124.75c0,0-28.06-.23-64.25-1.83,0,.36.13.69.13,1.05v1.95c0,12.87-12.52,23.32-28,23.32h-5.68c-5.6,8.86-33.73,57.54-8.31,104.13,18.65,34.2,87,58.83,135.23,60.63a98.15,98.15,0,0,0,27.75-3,52.28,52.28,0,0,1-9.09-1.68C638.69,817.37,623.11,828.36,611.77,823.07Z"/></svg>