<svg id="Capa_1" data-name="Capa 1" xmlns="http://www.w3.org/2000/svg" viewBox="0 0 1200 1200"><defs><style>.cls-1{fill:#29abe2;}</style></defs><title>ICONOS</title><path class="cls-1" d="M600,0C268.63,0,0,268.63,0,600s268.63,600,600,600,600-268.63,600-600S931.37,0,600,0Zm89.85,617.83,142.76-77.18a2.17,2.17,0,0,1,3,.88l62.59,115.74a2.19,2.19,0,0,1-.9,3l-142.76,77.2a2.2,2.2,0,0,1-3-.89L689,620.8A2.2,2.2,0,0,1,689.85,617.83Zm311.06,223s-32.95,17.8-69,36.73c-36.26,19-74.56,38.77-88.46,43.93-2.22.69-3.18,1.37-7.08,1.56h-1.07c-4.74,0-11.91-.24-19.22-4.37a37.37,37.37,0,0,1-3.36-2.16l-42,29.58a50.09,50.09,0,1,1-85.91,44.46,50,50,0,0,1,27.7-90.18L696.35,712.67l-.65-1.24c-44.69-84-89.77-168.42-95-176.53a14.32,14.32,0,0,0-2-1.9c.81,9.92-9.08,20.83-16,20.69-6.09-.13-7.67-9.88-11.93-15.58A94,94,0,0,0,558,546.53c-2.36,1.79-3.57,2.85-3.57,2.85a10.78,10.78,0,1,1-14.16-16.26,33.06,33.06,0,0,0,2.82-2.22,73.25,73.25,0,0,0-11.1-1.77c-4.93-.1-51.52-10-72.57-14.48,8.41,56.32-.3,70.88-6.91,73.35-.51,10.18-1.58,25-3.75,46.7-1.82,18.09,40.34,131.49,40.34,158.38S488,976.48,488,976.48l-15.42.3C498,994.34,526.66,1005,526.66,1005s7.91,22-30.56,17.91c-42-4.43-59,3-72.94-3.47-13-6-1.61-17.85-.7-41.69l-10.65.21s-16.47-142.3-18.31-164c-.43-5-1.05-10-1.82-15a174.26,174.26,0,0,1-10.83,17.57c-15.12,20.37-114.34,111-114.34,111l-6.38-7.4c0,15.59.39,34.53,3.76,36.91,19,13.45,14.76,26.91,1.11,25.77-13.44-1.12-29.55,4.44-37-15.69-15.69-42.58-25.23-30.86-34.72-59.39-3.38-10.08,17-24.9,29.13-28,0,0,.72-.53,1.86-1.2l-4.11-4.77S289,787.93,312.51,763.28c11.46-12,22.45-53.42,30.73-92.77-6-12.27-10.35-22-11-28.33-3.94-38,1.34-53,4.31-72.33-2.78-.6-4.62-1.05-5.2-1.24-5.5-1.85-7.49-10.45-3.66-40.91s5.37-105.73,7.9-130.56c5.05-49.32,9.18-52.55,16.47-63.25l-.41-.24,4.87-11.21s.83.72,2.35,1.89a84.81,84.81,0,0,0,4.41-32.86l-1.9,1.84s-2.74-7.27-6.11-16.75c-.68.65-1.26,1.19-1.7,1.59,0,0-12.7-16.87-16.95-42.64s14.51-40.31,21.26-48.4c3.54-4.26,11.39-8.75,20.17-12.07l1.55-.55c1.89-.67,3.78-1.27,5.7-1.82.71-.2,1.4-.39,2.11-.57,1.81-.46,3.58-.82,5.35-1.13.68-.12,1.36-.27,2-.37a49.58,49.58,0,0,1,6.77-.55c34.55.11,50.83,20.09,50.83,20.09s10.19-2.85,33.65-3.12a14.56,14.56,0,0,1,4.88,0c.46,0,.85,0,1.32,0-.23,0-.43.09-.66.11,6.66,1.4,10.28,7.9,6,17.14-5.46,11.69-11.7,9.93-22.29,11.36-5.93.8-11.56,1.2-16.4,1.4a67.6,67.6,0,0,1-4.83,6.29,145.8,145.8,0,0,1,3.6,34.83,118.48,118.48,0,0,0,8.58,14c1.24,4.19-4.89,7.16-10.71,9.23-2.49,13.55-7,24.18-13.48,27.66a48.09,48.09,0,0,1-15.7,5.7l.07.09L416.83,316c-2.86,6.8-7.51,18.13-12,30.12.35.07.69.17,1,.23.18,3.08.18,5,.14,6.16a101.88,101.88,0,0,1,10.68,12.31c12.59,15.22,48.58,65.94,48.58,65.94a49.05,49.05,0,0,1-3,6.53c7.66,10.26,13.79,17.85,16.25,19.24,8.31,4.71,61.15,24.49,77.89,31.76,15-.3,31.37-.94,31.37-.94s11.42,7.85,17.38,16.71a13.1,13.1,0,0,1,2.17,9.14,30.56,30.56,0,0,1,10.34,8.37,57.88,57.88,0,0,1,4.09,6.56c1.68,3,3.89,6.93,6.61,11.87,5.42,9.86,12.76,23.44,21.43,39.58,17.34,32.28,40,74.73,62.85,117.69C758.23,783,805.22,871.37,812,882.6s11.69,15.59,14.64,17.2c2.74,1.47,4.57,1.62,8.78,1.65.2-.06.44-.15.7-.25,1.27-.44,3.21-1.25,5.59-2.29,4.76-2.1,11.31-5.23,18.93-9,15.25-7.52,34.82-17.6,54.09-27.7,38.57-20.19,75.88-40.34,76-40.4a10.79,10.79,0,0,1,10.25,19Zm4.78-43L836.5,890.15a2.63,2.63,0,0,1-3.55-1L758.13,751.9a2.62,2.62,0,0,1,1-3.53l169.21-92.29a2.62,2.62,0,0,1,3.54,1l74.82,137.19A2.57,2.57,0,0,1,1005.69,797.85Z"/><path class="cls-1" d="M600.59,534.81h0Z"/><path class="cls-1" d="M717,751.51l13.05,151.17a50.22,50.22,0,0,1,32.62,33.24l40.44-28.46a104.8,104.8,0,0,1-9.67-13.78C787.09,883,754.18,821.28,717,751.51Z"/></svg>