<svg id="Capa_1" data-name="Capa 1" xmlns="http://www.w3.org/2000/svg" viewBox="0 0 1200 1200"><defs><style>.cls-1{fill:#29abe2;}</style></defs><title>ICONOS</title><path class="cls-1" d="M600,0C268.63,0,0,268.63,0,600s268.63,600,600,600,600-268.63,600-600S931.37,0,600,0Zm506.47,530.34L361.31,1052.1a12,12,0,0,1-16.75-3l-254-362.72a12,12,0,0,1,3-16.76L838.69,147.9a12,12,0,0,1,16.75,3l254,362.72A12,12,0,0,1,1106.47,530.34Z"/><path class="cls-1" d="M836,207.38l213.66,305.14L806.07,683.08A222.2,222.2,0,0,0,599.82,377.73q-3.65,0-7.28.12L836,207.38M393.94,516.91c-27.05,67.41-20.67,146.77,24,210.57a222.61,222.61,0,0,0,182.24,94.79q3.65,0,7.28-.12L364,992.62,150.34,687.48l243.6-170.57M837.46,187a12,12,0,0,0-6.9,2.18L483,432.61a204.2,204.2,0,0,1,284.35,50.23c64.71,92.41,42.25,219.77-50.15,284.47l347.71-243.47a12,12,0,0,0,3-16.76L847.32,192.16a12,12,0,0,0-9.86-5.13ZM483,432.61l-.12.08-.09.06.21-.14Zm-.21.14L135.13,676.16a12,12,0,0,0-3,16.76l220.51,314.92a12,12,0,0,0,16.76,2.95L717.15,767.32a204.21,204.21,0,0,1-284.46-50.16C368,624.78,390.43,497.48,482.75,432.75Z"/><polygon class="cls-1" points="717.16 767.31 717.15 767.32 717.15 767.32 717.16 767.31 717.16 767.31"/><path class="cls-1" d="M599.82,413.73a186,186,0,0,1,152.75,79.44,186.34,186.34,0,0,1-25,242.58,29.83,29.83,0,0,0-2.79-4.9l-28.2-40.27c23.89-31.11,25.68-70.24,4.25-100.85C684,565.63,661,553.92,630.52,553.92c-11.35,0-23.91,1.6-38.4,4.9-14.67,3.25-24.39,4.7-31.53,4.7-9.57,0-12.08-2.53-14.59-6.11a13.43,13.43,0,0,1-2.29-10.16c1-5.28,5.29-10.71,12.43-15.71A76,76,0,0,1,584.6,519a30,30,0,0,0,23-36.79l-.79-3.14a30,30,0,0,0-35.22-22,120.47,120.47,0,0,0-28.68,10l-24.26-34.65a184.81,184.81,0,0,1,81.17-18.68M469.55,467l26.32,37.59c-23.17,30.17-24.82,66.74-4,96.43,15,21.44,36.17,31.86,64.68,31.86,12.77,0,27.12-2,45.17-6.39,9.41-2.15,17.06-3.2,23.37-3.2,11.7,0,16.53,3.47,20.18,8.68,8.48,12.12-1,25.13-11.6,32.59a86.78,86.78,0,0,1-34.77,14.09A30,30,0,0,0,575,716.17l.92,3.35a30.09,30.09,0,0,0,28.93,22.12,29.68,29.68,0,0,0,4.51-.34,135.34,135.34,0,0,0,39.73-13.15l26.17,37.37a29,29,0,0,0,2.93,3.57,184.77,184.77,0,0,1-78,17.18,186,186,0,0,1-152.75-79.44A186.37,186.37,0,0,1,469.55,467m130.27-71.27a203.26,203.26,0,0,0-117,37c-92.4,64.7-114.86,192.06-50.15,284.47a204.21,204.21,0,0,0,284.46,50.16h0c92.4-64.7,114.86-192.06,50.15-284.47a204,204,0,0,0-167.49-87.11Zm-43.3,219.15c-21,0-37.67-6.67-49.93-24.18-16.91-24.15-14.38-54,6-78.21a12,12,0,0,0,.57-14.55l-30.09-43a12,12,0,0,1,3-16.75h0a12,12,0,0,1,16.76,2.95l28.37,40.51a12,12,0,0,0,15.6,3.67,103.69,103.69,0,0,1,28.49-10.68,12.15,12.15,0,0,1,2.46-.25,12,12,0,0,1,11.64,9.07l.8,3.14a12,12,0,0,1-9.24,14.74,94,94,0,0,0-35.1,15.45c-24.49,17.14-23.47,38.22-14.56,50.94,6.85,9.78,15.79,13.78,29.33,13.78,9.35,0,20.9-1.91,35.47-5.14,12.71-2.89,24.15-4.46,34.46-4.46,23.86,0,41.73,8.38,55.57,28.13,16.21,23.17,16.62,55.39-6.13,82.48a12.08,12.08,0,0,0-.7,14.7L710,741.17a12,12,0,0,1-2.95,16.76l-.32.22A12,12,0,0,1,690,755.2l-29.19-41.69A12,12,0,0,0,651,708.4a12.11,12.11,0,0,0-5.9,1.53c-12.65,7-26.39,11.75-38.41,13.58a12,12,0,0,1-13.37-8.74l-.92-3.35a12,12,0,0,1,9.49-15A104.24,104.24,0,0,0,644,679.3c22.57-15.81,28.7-39.53,16-57.65-8.05-11.51-19.46-16.36-34.92-16.36-8,0-17.16,1.31-27.5,3.68-15.16,3.67-28.84,5.91-41,5.91Z"/><path class="cls-1" d="M679.26,697.23a12.08,12.08,0,0,1,.7-14.7c22.75-27.09,22.34-59.31,6.13-82.48-19.82-28.29-47.93-33.25-90-23.67-35.67,7.92-53.22,7.89-64.8-8.64-8.91-12.72-9.93-33.8,14.56-50.94a94,94,0,0,1,35.1-15.45,12,12,0,0,0,9.24-14.74l-.8-3.14a12,12,0,0,0-14.1-8.82,103.69,103.69,0,0,0-28.49,10.68,12,12,0,0,1-15.6-3.67L502.8,441.15A12,12,0,0,0,486,438.2h0a12,12,0,0,0-3,16.75l30.09,43a12,12,0,0,1-.57,14.55c-20.4,24.24-22.93,54.06-6,78.21C526,618.36,556.23,619,597.56,609c30.21-6.94,50.18-4.81,62.42,12.68,12.69,18.12,6.56,41.84-16,57.65a104.24,104.24,0,0,1-42.12,17.1,12,12,0,0,0-9.49,15l.92,3.35a12,12,0,0,0,13.37,8.74c12-1.83,25.76-6.6,38.41-13.58a12.06,12.06,0,0,1,15.75,3.58L690,755.2a12,12,0,0,0,16.76,2.95l.32-.22A12,12,0,0,0,710,741.17Z"/></svg>